<svg width="33" height="42" viewBox="0 0 33 42" fill="none" xmlns="http://www.w3.org/2000/svg">
<path d="M22.4314 20.6684C25.451 18.6789 27.5 15.1421 27.5 11.2737C27.5 5.08421 22.5392 0 16.5 0C10.4608 0 5.60784 5.08421 5.60784 11.2737C5.60784 15.2526 7.65686 18.6789 10.6765 20.6684C4.42157 23.1 0 29.2895 0 36.4737C0 39.5684 2.37255 42 5.39216 42H27.7157C30.7353 42 33.1078 39.5684 33.1078 36.4737C33 29.2895 28.5784 23.1 22.4314 20.6684ZM8.41177 11.2737C8.41177 6.63158 12.0784 2.98421 16.5 2.98421C20.9216 2.98421 24.5882 6.74211 24.5882 11.2737C24.5882 15.9158 20.9216 19.5632 16.5 19.5632C12.0784 19.5632 8.41177 15.8053 8.41177 11.2737ZM27.7157 39.1263H5.39216C3.9902 39.1263 2.80392 37.9105 2.80392 36.4737C2.80392 28.7368 8.95098 22.4368 16.5 22.4368C24.049 22.4368 30.1961 28.7368 30.1961 36.4737C30.1961 37.9105 29.1176 39.1263 27.7157 39.1263Z" fill="#7748ED"/>
</svg>
